# xmcd CD database file
#
# Track frame offsets:
#	150
#	16475
#	38290
#	54720
#	74840
#	96022
#	115440
#	131790
#	151847
#	174302
#
# Disc length: 2617 seconds
#
# Revision: 0
# Processed by: cddbd v1.5.1PL0 Copyright (c) Steve Scherf et al.
# Submitted via: CDex 1.40Beta9
#
DISCID=830a370a
DTITLE=一世風靡SEPIA - The Best-20
DYEAR=1995
DGENRE=J-Pop
TTITLE0=街よ崩れるように笑いなさい
TTITLE1=やがて来る日
TTITLE2=CUT&DOWN
TTITLE3=未だ遠い道
TTITLE4=Day Light
TTITLE5=フィレンツェからの風
TTITLE6=風の唄
TTITLE7=前略、道の上から
TTITLE8=Time Up
TTITLE9=街で生まれた唄
EXTD=YEAR: 1995/12/21
EXTT0=
EXTT1=
EXTT2=
EXTT3=
EXTT4=
EXTT5=
EXTT6=
EXTT7=
EXTT8=
EXTT9=
PLAYORDER=
